<svg xmlns="http://www.w3.org/2000/svg" xmlns:xlink="http://www.w3.org/1999/xlink" viewBox="0 0 740 918"><defs><style>.a{fill:#27324d;opacity:0.2;}.b{fill:url(#a);}.c{fill:url(#b);}.d{fill:url(#c);}.e{fill:url(#d);}.f{fill:#9090c0;}.g{fill:#74637b;}</style><linearGradient id="a" x1="20" y1="252.06" x2="665.25" y2="252.06" gradientUnits="userSpaceOnUse"><stop offset="0" stop-color="#fff" stop-opacity="0.4"/><stop offset="0.1" stop-color="#fff" stop-opacity="0.38"/><stop offset="0.21" stop-color="#fff" stop-opacity="0.33"/><stop offset="0.32" stop-color="#fff" stop-opacity="0.25"/><stop offset="0.43" stop-color="#fff" stop-opacity="0.14"/><stop offset="0.5" stop-color="#fff" stop-opacity="0.05"/><stop offset="0.58" stop-color="#fff" stop-opacity="0.1"/><stop offset="0.74" stop-color="#fff" stop-opacity="0.23"/><stop offset="0.94" stop-color="#fff" stop-opacity="0.43"/><stop offset="1" stop-color="#fff" stop-opacity="0.5"/><stop offset="1" stop-color="#fff" stop-opacity="0.4"/></linearGradient><linearGradient id="b" x1="465.63" y1="818.63" x2="720" y2="818.63" xlink:href="#a"/><linearGradient id="c" x1="250.32" y1="734.52" x2="720" y2="734.52" xlink:href="#a"/><linearGradient id="d" x1="20" y1="162.25" x2="435.34" y2="162.25" xlink:href="#a"/></defs><rect class="a" x="20" width="700" height="918" transform="translate(740 918) rotate(-180)"/><polygon class="b" points="567.8 0 20 427.98 20 504.13 665.25 0 567.8 0"/><polygon class="c" points="465.63 918 563.09 918 720 795.41 720 719.27 465.63 918"/><polygon class="d" points="720 551.05 250.32 918 347.78 918 720 627.19 720 551.05"/><polygon class="e" points="402.86 0 20 299.12 20 324.5 435.34 0 402.86 0"/><path class="f" d="M0,882v36H740V882H720V0H20V882Zm40,0V42H700V882Z"/><rect class="g" x="-397" y="445" width="854" height="20" transform="translate(485 425) rotate(90)"/><rect class="g" x="667" y="61" width="86" height="20" transform="translate(781 -639) rotate(90)"/><rect class="g" x="20" y="28" width="700" height="14" transform="translate(740 70) rotate(-180)"/><rect class="g" x="671" y="833" width="78" height="20" transform="translate(1553 133) rotate(90)"/></svg>