<svg xmlns="http://www.w3.org/2000/svg" xmlns:xlink="http://www.w3.org/1999/xlink" viewBox="0 0 740 918"><defs><style>.a{fill:#27324d;opacity:0.2;}.b{fill:url(#a);}.c{fill:url(#b);}.d{fill:#9090c0;}.e{fill:#74637b;}</style><linearGradient id="a" x1="763.43" y1="183.72" x2="1502.88" y2="183.72" gradientTransform="matrix(0.85, 0.13, 0.13, 0.89, -485.95, 407.76)" gradientUnits="userSpaceOnUse"><stop offset="0" stop-color="#fff" stop-opacity="0.4"/><stop offset="0.1" stop-color="#fff" stop-opacity="0.38"/><stop offset="0.21" stop-color="#fff" stop-opacity="0.33"/><stop offset="0.32" stop-color="#fff" stop-opacity="0.25"/><stop offset="0.43" stop-color="#fff" stop-opacity="0.14"/><stop offset="0.5" stop-color="#fff" stop-opacity="0.05"/><stop offset="0.58" stop-color="#fff" stop-opacity="0.1"/><stop offset="0.74" stop-color="#fff" stop-opacity="0.23"/><stop offset="0.94" stop-color="#fff" stop-opacity="0.43"/><stop offset="1" stop-color="#fff" stop-opacity="0.5"/><stop offset="1" stop-color="#fff" stop-opacity="0.4"/></linearGradient><linearGradient id="b" x1="-58.53" y1="282.88" x2="680.92" y2="282.88" gradientTransform="matrix(0.99, 0.01, 0.01, 0.99, 9.79, -8.22)" xlink:href="#a"/></defs><rect class="a" x="20" width="700" height="918"/><polygon class="b" points="720 506.11 229.13 918 376.63 918 720 629.88 720 506.11"/><polygon class="c" points="530.21 0 20 428.12 20 551.89 677.71 0 530.21 0"/><path class="d" d="M720,882V0H20V882H0v36H740V882ZM40,882V42H700V882Z"/><rect class="e" x="283" y="445" width="854" height="20" transform="translate(1165 -255) rotate(90)"/><rect class="e" x="-13" y="61" width="86" height="20" transform="translate(101 41) rotate(90)"/><rect class="e" x="20" y="28" width="700" height="14"/><rect class="e" x="-9" y="833" width="78" height="20" transform="translate(873 813) rotate(90)"/></svg>